<?xml version="1.0" encoding="UTF-8" standalone="no"?>
<svg
   xmlns:dc="http://purl.org/dc/elements/1.1/"
   xmlns:cc="http://creativecommons.org/ns#"
   xmlns:rdf="http://www.w3.org/1999/02/22-rdf-syntax-ns#"
   xmlns:svg="http://www.w3.org/2000/svg"
   xmlns="http://www.w3.org/2000/svg"
   xmlns:xlink="http://www.w3.org/1999/xlink"
   id="svg7"
   xml:space="preserve"
   viewBox="0 0 200 200"
   y="0px"
   x="0px"
   version="1.1"><metadata
     id="metadata13"><rdf:RDF><cc:Work
         rdf:about=""><dc:format>image/svg+xml</dc:format><dc:type
           rdf:resource="http://purl.org/dc/dcmitype/StillImage" /></cc:Work></rdf:RDF></metadata><defs
     id="defs11" /><g
     id="g3"
     transform="matrix(0.33333,0,0,0.33333,100,100)"><path
       style="fill:#ff7680"
       d="m 152.4,-201.9 c 46.6,26 86.9,68.5 97.2,116.9 10.4,48.3 -9.3,102.5 -32.2,150.3 -22.9,47.8 -49,89.1 -85.8,121.8 -36.8,32.8 -84.2,56.8 -135.5,62.2 -51.4,5.4 -106.6,-7.9 -148.6,-38.9 -42,-31 -70.8,-79.8 -87.5,-132.2 -16.8,-52.4 -21.5,-108.6 -2.2,-153.4 19.4,-44.8 62.9,-78.2 107.3,-105 44.4,-26.7 89.6,-46.8 138.7,-52 49.1,-5.3 102,4.2 148.6,30.3 z"
       id="path" /></g><animate
     fill="freeze"
     values="M120.2,-176.8C149.6,-144.2,162.8,-100.7,175.5,-57.9C188.3,-15,200.7,27.1,195.6,70.1C190.6,113,168.2,156.8,132.7,178C97.2,199.1,48.6,197.5,4.9,190.8C-38.8,184.1,-77.6,172.1,-115.3,151.7C-153,131.3,-189.7,102.4,-205.6,64.2C-221.6,26.1,-216.8,-21.4,-204,-67.9C-191.2,-114.4,-170.2,-160,-134.9,-190.6C-99.5,-221.3,-49.8,-237.2,-2.2,-234.2C45.5,-231.2,90.9,-209.5,120.2,-176.8Z; M152.4,-201.9C199,-175.9,239.3,-133.4,249.6,-85C260,-36.7,240.3,17.5,217.4,65.3C194.5,113.1,168.4,154.4,131.6,187.1C94.8,219.9,47.4,243.9,-3.9,249.3C-55.3,254.7,-110.5,241.4,-152.5,210.4C-194.5,179.4,-223.3,130.6,-240,78.2C-256.8,25.8,-261.5,-30.4,-242.2,-75.2C-222.8,-120,-179.3,-153.4,-134.9,-180.2C-90.5,-206.9,-45.3,-227,3.8,-232.2C52.9,-237.5,105.8,-228,152.4,-201.9Z; M101.9,-120.6C144.2,-109.5,199.1,-96,223.6,-62.7C248.2,-29.4,242.5,23.8,220.4,65.3C198.2,106.8,159.7,136.8,120.2,173.1C80.7,209.4,40.4,252.2,-4.7,258.7C-49.8,265.2,-99.5,235.3,-119,192.5C-138.5,149.7,-127.8,93.8,-144.4,46.1C-161,-1.6,-205.1,-41.3,-214.9,-88C-224.7,-134.6,-200.2,-188.3,-158.7,-199.6C-117.2,-210.9,-58.6,-180,-14.4,-160.1C29.8,-140.3,59.6,-131.6,101.9,-120.6Z; M113.1,-161.5C148.6,-129.9,180.8,-99.5,181.6,-66.3C182.3,-33.1,151.5,3.1,132.4,37.1C113.2,71.2,105.7,103.2,85.6,142.9C65.4,182.7,32.7,230.4,-3.9,235.8C-40.6,241.2,-81.1,204.3,-114.7,168.9C-148.3,133.5,-175,99.5,-198.1,57.5C-221.3,15.5,-240.9,-34.6,-221,-64.4C-201.2,-94.2,-141.7,-103.7,-98.3,-132.8C-54.9,-161.8,-27.4,-210.4,5.7,-218.2C38.8,-226.1,77.6,-193.1,113.1,-161.5Z; M102,-143.7C138.9,-113.5,180.3,-92.8,196.8,-59.7C213.4,-26.7,205.1,18.6,190.6,61.5C176.1,104.4,155.4,144.8,122.5,162.7C89.7,180.5,44.9,175.8,-1.2,177.4C-47.2,179,-94.4,187,-113.8,164.8C-133.1,142.5,-124.6,90.1,-143.6,43.8C-162.6,-2.6,-209.2,-42.9,-216.4,-85.7C-223.7,-128.5,-191.5,-173.9,-148.8,-202.2C-106.2,-230.5,-53.1,-241.7,-10.3,-227.6C32.5,-213.4,65,-173.9,102,-143.7Z; M120.2,-176.8C149.6,-144.2,162.8,-100.7,175.5,-57.9C188.3,-15,200.7,27.1,195.6,70.1C190.6,113,168.2,156.8,132.7,178C97.2,199.1,48.6,197.5,4.9,190.8C-38.8,184.1,-77.6,172.1,-115.3,151.7C-153,131.3,-189.7,102.4,-205.6,64.2C-221.6,26.1,-216.8,-21.4,-204,-67.9C-191.2,-114.4,-170.2,-160,-134.9,-190.6C-99.5,-221.3,-49.8,-237.2,-2.2,-234.2C45.5,-231.2,90.9,-209.5,120.2,-176.8Z"
     keySplines="0.9 0.1 0.1 0.9;0.9 0.1 0.1 0.9;0.9 0.1 0.1 0.9;0.9 0.1 0.1 0.9;0.9 0.1 0.1 0.9"
     calcMode="spline"
     keyTimes="0; 0.2; 0.4; 0.6; 0.8; 1"
     attributeName="d"
     repeatCount="indefinite"
     dur="20s"
     attributeType="XML"
     xlink:href="#path" /><path
     id="path5"
     transform="translate(40 40) scale(0.6)"
     fill="#f9f9f9"
     d="m100.11 40c-11.223 0-21.367 2.8065-30.432 7.9863-9.0647 5.1799-16.187 12.517-21.367 21.582-5.1799 9.0647-7.7695 19.209-7.7695 30.432s2.3748 21.584 7.1231 30.648c4.7482 9.0648 11.438 16.185 19.855 21.365 8.6331 5.3957 17.914 7.9863 28.273 7.9863h53.311c2.8058 0 5.1796-1.079 7.3379-3.0215 1.9425-1.9424 3.0215-4.3163 3.0215-7.3379v-49.641c0-11.007-2.8065-21.367-7.9863-30.432-5.1799-9.0647-12.302-16.402-21.367-21.582-9.0648-5.1799-18.993-7.9863-30-7.9863zm0 19.424c7.1223 0 13.598 1.9432 19.426 5.3965 5.8273 3.4532 10.359 8.4178 13.812 14.461 3.2374 6.259 4.9629 13.165 4.9629 20.719 0 7.7698-1.7255 14.676-4.9629 20.719-3.4532 6.0432-7.9852 11.008-13.812 14.461-5.8273 3.4532-12.303 5.1797-19.426 5.1797-7.3381 0-13.813-1.7264-19.641-5.1797-5.8273-3.4532-10.359-8.4178-13.812-14.461-3.4532-6.0432-4.9629-12.949-4.9629-20.719 0-7.554 1.5097-14.46 4.9629-20.719 3.4532-6.0432 7.9852-11.008 13.812-14.461 5.8273-3.4532 12.302-5.3965 19.641-5.3965z" /></svg>