<?xml version="1.0" encoding="utf-8"?>
<!-- Generator: Adobe Illustrator 22.1.0, SVG Export Plug-In . SVG Version: 6.00 Build 0)  -->
<svg version="1.1" id="Слой_1" xmlns="http://www.w3.org/2000/svg" xmlns:xlink="http://www.w3.org/1999/xlink" x="0px" y="0px"
	 viewBox="0 0 828 1021" style="enable-background:new 0 0 828 1021;" xml:space="preserve">
<style type="text/css">
	.st0{fill:#F2C94C;}
	.st1{fill:#F2994A;}
	.st2{opacity:0.2;fill:url(#SVGID_1_);enable-background:new    ;}
	.st3{opacity:0.1;fill:url(#SVGID_2_);enable-background:new    ;}
	.st4{opacity:0.15;fill:url(#SVGID_3_);enable-background:new    ;}
	.st5{opacity:0.1;fill:#FFFFFF;enable-background:new    ;}
	.st6{opacity:0.1;fill:url(#SVGID_4_);enable-background:new    ;}
	.st7{opacity:0.3;fill:url(#SVGID_5_);enable-background:new    ;}
	.st8{opacity:0.15;fill:#FFFFFF;enable-background:new    ;}
	.st9{opacity:0.3;fill:url(#SVGID_6_);enable-background:new    ;}
	.st10{opacity:0.2;fill:url(#SVGID_7_);enable-background:new    ;}
	.st11{opacity:0.2;fill:url(#SVGID_8_);enable-background:new    ;}
</style>
<path class="st0" d="M382.8,504.6c-17.2,21.5-36.3,45.1-49.7,61.6c-14.9-44.8,5-107.4,27.2-154.2
	C365.7,441.1,373.1,471.9,382.8,504.6z"/>
<path class="st1" d="M487.6,338.8c22.1,21.2,41.9,60.8,27,122.7c-13.4-1.1-32.4-2.6-49.6-4.2C474.8,413.3,482.2,374,487.6,338.8z"/>
<linearGradient id="SVGID_1_" gradientUnits="userSpaceOnUse" x1="279.4712" y1="976.9734" x2="590.3222" y2="438.4202" gradientTransform="matrix(1 0 0 -1 0 1022)">
	<stop  offset="0" style="stop-color:#FFFFFF"/>
	<stop  offset="1" style="stop-color:#FFFFFF;stop-opacity:0"/>
</linearGradient>
<path class="st2" d="M440.1,559.3C563.6,84.7,462,44.4,423.6,28.2c-38.4,60.6-140,218.2-16.3,550L440.1,559.3z"/>
<linearGradient id="SVGID_2_" gradientUnits="userSpaceOnUse" x1="243.0802" y1="1004.2657" x2="553.9312" y2="465.7123" gradientTransform="matrix(1 0 0 -1 0 1022)">
	<stop  offset="0" style="stop-color:#FFFFFF"/>
	<stop  offset="1" style="stop-color:#FFFFFF;stop-opacity:0"/>
</linearGradient>
<path class="st3" d="M403.7,532c123.6-474.5,22-514.8-16.5-531.1c-38.4,60.6-140,218.2-16.3,550L403.7,532z"/>
<linearGradient id="SVGID_3_" gradientUnits="userSpaceOnUse" x1="337.4391" y1="859.5378" x2="577.4022" y2="426.5578" gradientTransform="matrix(1 0 0 -1 0 1022)">
	<stop  offset="0" style="stop-color:#FFFFFF;stop-opacity:0"/>
	<stop  offset="1" style="stop-color:#FFFFFF"/>
</linearGradient>
<path class="st4" d="M407.3,578.2c-123.7-331.8-22.1-489.4,16.3-550v540.6L407.3,578.2z"/>
<path class="st5" d="M386.7,195.3c0,28.9,17,42.5,38,30.4s38-45.4,38-74.3c0-28.9-17-42.5-38-30.4S386.7,166.4,386.7,195.3z"/>
<linearGradient id="SVGID_4_" gradientUnits="userSpaceOnUse" x1="360.0136" y1="337.1819" x2="494.2766" y2="104.5679" gradientTransform="matrix(1 0 0 -1 0 1022)">
	<stop  offset="0" style="stop-color:#FFFFFF"/>
	<stop  offset="1" style="stop-color:#FFFFFF;stop-opacity:0"/>
</linearGradient>
<path class="st6" d="M423.9,903.4c-20.6,45.3-51.3,84.3-85.6,104.1c-62,35.8-112.3-4.6-112.4-90.2c0-85.6,50.3-184.1,112.3-219.9
	c20.4-11.8,39.5-15.3,56-11.7c8.7-14.2,12.9-32.2,16.6-48c4.3-18.2,7.9-33.7,16.9-37.6c10.3-4.5,14.9,6.9,21.4,22.7
	c3.8,9.3,8.3,20.3,14.9,30.4c7.1-7.5,14.6-13.7,22.5-18.2c33.1-19.1,60.7-2.6,67.2,36.8c4.5-3.4,9-6.5,13.6-9.2
	c53.1-30.6,96.1,4.1,96.1,77.7c0,73.5-43,157.9-96,188.5c-51.5,29.7-93.6-2.2-96-71.3c-9.7,18-22.6,33.1-36.9,41.3
	C431,900.8,427.4,902.3,423.9,903.4z"/>
<linearGradient id="SVGID_5_" gradientUnits="userSpaceOnUse" x1="178.0545" y1="659.2312" x2="143.0545" y2="375.3651" gradientTransform="matrix(1 0 0 -1 0 1022)">
	<stop  offset="0" style="stop-color:#FFFFFF"/>
	<stop  offset="1" style="stop-color:#FFFFFF;stop-opacity:0"/>
</linearGradient>
<path class="st7" d="M294.4,358.2L23.6,514.5l-0.1,141.1l246.8-142.5l23.9,7.8L294.4,358.2z"/>
<path class="st0" d="M102.4,539.3l0-38.3L0.2,560l0,38.3L102.4,539.3z"/>
<path class="st5" d="M224.7,432.7L165.4,467l0,12.4l59.3-34.2L224.7,432.7z"/>
<path class="st5" d="M224.7,457.5l-107.1,61.8l0,12.4l107.1-61.8L224.7,457.5z"/>
<path class="st8" d="M224.7,482.3l-138.5,80l0,12.4l138.5-80L224.7,482.3z"/>
<path class="st0" d="M239.3,437.2c0,11.6,6.9,17.1,15.4,12.2c8.5-4.9,15.4-18.3,15.4-29.9c0-11.6-6.9-17.1-15.4-12.2
	C246.2,412.2,239.3,425.6,239.3,437.2z"/>
<linearGradient id="SVGID_6_" gradientUnits="userSpaceOnUse" x1="586.8997" y1="919.5994" x2="726.6816" y2="810.1544" gradientTransform="matrix(1 0 0 -1 0 1022)">
	<stop  offset="0" style="stop-color:#FFFFFF"/>
	<stop  offset="1" style="stop-color:#FFFFFF;stop-opacity:0"/>
</linearGradient>
<path class="st9" d="M527.9,158.9L798.6,2.7l-0.1,141.1L551.7,286.2l-23.9,35.4L527.9,158.9z"/>
<path class="st1" d="M827.4,57.7l0-38.3l-102.2,59l0,38.3L827.4,57.7z"/>
<path class="st8" d="M597.5,153.1l59.3-34.2l0,12.4l-59.3,34.2L597.5,153.1z"/>
<path class="st8" d="M597.4,177.9l114.3-66l0,12.4l-114.3,66L597.4,177.9z"/>
<path class="st8" d="M597.4,202.7l138.5-80l0,12.4l-138.5,80L597.4,202.7z"/>
<path class="st1" d="M582.8,174.4c0,11.6-6.9,25-15.4,29.9s-15.4-0.6-15.4-12.2c0-11.6,6.9-25,15.4-29.9
	C576,157.4,582.9,162.8,582.8,174.4z"/>
<linearGradient id="SVGID_7_" gradientUnits="userSpaceOnUse" x1="626.4965" y1="748.6736" x2="662.9615" y2="685.4974" gradientTransform="matrix(1 0 0 -1 0 1022)">
	<stop  offset="0" style="stop-color:#FFFFFF"/>
	<stop  offset="1" style="stop-color:#FFFFFF;stop-opacity:0"/>
</linearGradient>
<path class="st10" d="M563.9,309.5l161.7-93.3l0,84.2l-161.7,93.3L563.9,309.5z"/>
<path class="st8" d="M684.2,260.3l-55.4,32l0,10.1l55.4-32L684.2,260.3z"/>
<path class="st8" d="M684.1,280.6l-103.6,59.8l0,10.2l103.6-59.8L684.1,280.6z"/>
<path class="st1" d="M692.7,263.3c0,6.9,4.1,10.2,9.2,7.3c5.1-2.9,9.2-10.9,9.2-17.9c0-6.9-4.1-10.2-9.2-7.3
	C696.8,248.4,692.7,256.4,692.7,263.3z"/>
<linearGradient id="SVGID_8_" gradientUnits="userSpaceOnUse" x1="146.2338" y1="684.9969" x2="182.7008" y2="621.8192" gradientTransform="matrix(1 0 0 -1 0 1022)">
	<stop  offset="0" style="stop-color:#FFFFFF"/>
	<stop  offset="1" style="stop-color:#FFFFFF;stop-opacity:0"/>
</linearGradient>
<path class="st11" d="M83.6,373.1l161.7-93.3l0,84.2L83.6,457.4L83.6,373.1z"/>
<path class="st8" d="M203.9,324l-55.4,32l0,10.1l55.4-32L203.9,324z"/>
<path class="st8" d="M203.9,344.3l-103.6,59.8l0,10.2l103.6-59.8L203.9,344.3z"/>
<path class="st0" d="M212.4,327c0,6.9,4.1,10.2,9.2,7.3c5.1-2.9,9.2-10.9,9.2-17.9c0-6.9-4.1-10.2-9.2-7.3S212.4,320.1,212.4,327z"
	/>
</svg>
