<svg id="Calque_1" data-name="Calque 1" xmlns="http://www.w3.org/2000/svg" viewBox="0 0 1080 1080"><defs><style>.cls-1{fill:#ff1616;}.cls-2{fill:none;stroke:#ff1616;stroke-miterlimit:10;stroke-width:2px;}.cls-3{fill:#fff;}</style></defs><rect class="cls-1" x="269.81" y="329.07" width="249.94" height="249.94"/><rect class="cls-2" x="274.25" y="600.42" width="241.05" height="241.05"/><rect class="cls-2" x="586.03" y="279.83" width="249.94" height="249.94" transform="translate(-107.14 409.73) rotate(-30)"/><rect class="cls-1" x="535.41" y="595.97" width="249.94" height="249.94"/><path class="cls-1" d="M221.12,345.22v12.32h23.1v13.57h-23.1V394H206V331.11h44.85v14.11Z"/><path class="cls-1" d="M250,469.81v14.11H203.73V421h45.75v14.12H218.83v10.34h24v13.21h-24v11.15Z"/><path class="cls-1" d="M237.48,573.8l-11.69-20.49h-7.73V573.8H203V510.88h23.46c15.82,0,25.36,8.63,25.36,21.57,0,8.45-4.05,14.75-11.33,18.16l13.93,23.19Zm-19.42-33.89h10.43a7.46,7.46,0,1,0,0-14.92H218.06Z"/><path class="cls-1" d="M254.74,600.76v62.93h-14.2l-12.86-17.53c-5.75-7.91-14.2-19.87-14.29-19.87h-.09c-.09,0,.09,9.71.09,23.46v13.94h-15.1V600.76h14.2l13.4,18c4,5.39,13.66,19,13.75,19h.09c.09,0-.09-11.15-.09-22.57V600.76Z"/><path class="cls-1" d="M250,739.46v14.11H203.73V690.64h45.75v14.12H218.83v10.33h24v13.22h-24v11.15Z"/><path class="cls-1" d="M251.55,829.34v14.11H206.69V780.53h15.1v48.81Z"/><path class="cls-3" d="M329.13,397.44h27.95l.62,1.35,14.59,14.13,23,51.1c9.63-22.1,19.56-45.09,29.18-66.58h27.64v.9l15.05,14.58V521.44H444.31l-15.05-14.58h-.78V490.32l-13.66,31.12H397.59l-15.06-14.58h-.77l-14.59-32.32c.31,15.78.61,31.72.77,46.9H345.12l-15.06-14.58h-.93Zm3.11,106.41h17.54l-1.24-77.41h.62l34.77,77.41h13.51l34.77-78.76h.62l-1.4,78.76H449V400.44H426.62l-35.4,80.41h-.46L354.9,400.44H332.24Z"/><path class="cls-3" d="M621.73,662.14h81v.91l15,14.57v19.54H660.53v8.72h30.89v.9l15.06,14.58v19.09h-46v10.67h43.62v.9l15.06,14.59v19.53H637.72l-15.06-14.58h-.93Zm3.1,106.42h76.22V754.13H642.37V722.87h46v-14h-46V679.58h57.28V665.15H624.83Z"/><path class="cls-1" d="M333.44,666.23h25l.31,1.2,14.9,14.28,18,51.86,8.08-22.85,15.83-44.49h24.21l-.3.75,15.21,14.73L414,790.23H390.09l-15-14.58h-.78Zm43,106.41h20.18l38.81-103.4H417.73l-30.59,86.57h-.62l-30.27-86.57H337.78Z"/><path class="cls-1" d="M696.51,466.09c-16.72-2-31.77-12.2-41.47-29C638.73,408.85,646.15,377,675.58,360c16.27-9.39,33.55-10.52,48.52-4.75l14.68,3.67c14,3.52,26.28,12.94,34.55,27.26,16.16,28,8.14,60-20.5,76.57-14.11,8.15-28.59,10.09-41.72,6.9Zm34.09-10.83c27.29-15.75,34.9-46.35,19.49-73s-45.72-35.39-73-19.64c-27.83,16.07-34.77,46.28-19.36,73S702.77,471.33,730.6,455.26Zm-46-79.66c18.41-10.64,38.7-3.43,49.75,15.7s7.14,40.31-11.28,50.95-38.49,3.48-49.62-15.79S666.32,386.15,684.61,375.6Zm24,68.38a32,32,0,0,0,12.92-4.34c16.8-9.7,20.24-29.21,10.09-46.78a42.45,42.45,0,0,0-12.95-14.05,33.09,33.09,0,0,0-11.88,4.26c-16.94,9.78-20.51,29.37-10.13,47.33A42.71,42.71,0,0,0,708.66,444Z"/></svg>